<svg version="1.0" xmlns="http://www.w3.org/2000/svg" width="933.333" height="933.333" viewBox="0 0 700 700"><path d="M147.4 103.9c-.2.2-.4 42.4-.4 93.7v93.3h-36.4c-20.1-.1-36.8.1-37.3.4-.6.4-1 106.8-.4 114.4.1 1 8.2 1.3 37.1 1.3h37v188.1l106.8-.4c58.7-.2 108.1-.7 109.7-.9 1.7-.3 5.9-.9 9.5-1.2 3.6-.4 7.2-.9 8-1.1.8-.2 3.5-.7 5.9-1 16.1-2.3 44.7-10.4 58.6-16.5 14.3-6.4 21.5-10 31.8-16.1 6.6-4 12.6-7.6 13.2-8 .5-.5 5.5-4.3 11-8.5 32.7-24.9 60.7-65.3 74.5-107.4 3-9.2 7-24.8 7.6-29.5.3-2.2.7-4.6 1-5.4.7-2 2.3-14 3.1-22.9 1.4-15.1.6-58.5-1.2-65.2-.2-.8-.6-3.5-.9-6-.9-6.4-1.4-9.3-3.7-19.2-1.1-4.8-2-9-2-9.3 0-.2-2-6.3-4.4-13.5-5.6-16.3-20.1-46.5-25.1-52.1-.8-.8-1.4-1.9-1.4-2.3 0-1.2-13-18.2-19.5-25.6-21.8-24.7-54.2-47.2-85.5-59.3-12.8-5-18.6-7-22-7.8-1.9-.4-6.9-1.7-11-2.8-7.2-2-21.3-4.8-27.5-5.6-1.6-.2-4.6-.7-6.5-.9-3.4-.6-5.9-.8-20.5-2.2-7.5-.7-208.4-1.2-209.1-.5zm190.1 102.5c6.1.3 12.1.8 13.5 1 1.4.3 5.2 1 8.5 1.5 21 3.8 35.2 9.4 53.9 21.4 6.1 3.8 18.6 15.7 24.6 23.2 9.8 12.3 17.8 28.3 22.4 44.5 2.6 9.3 3.5 14 5.5 28 1 6.8.7 42.3-.3 50-.4 2.5-1.1 6.5-1.6 9s-1.2 5.9-1.5 7.6c-.3 1.8-1.9 7.4-3.5 12.5-11.8 36.1-37.4 62.9-72.2 75.8-8.4 3.1-17.2 5.7-21.8 6.4-1.4.3-4.5.8-7 1.2-2.5.4-5.4.9-6.5 1.1-7.8 1.5-79.1 2.8-83.2 1.6-1-.3-1.3-9.7-1.3-42.3V407h77v-4.8c.1-5.2.1-107.8 0-110.2 0-1.3-4.9-1.5-38.5-1.4l-38.5.2v-42.3c0-38.8.1-42.4 1.7-42.7 2.7-.5 56.8 0 68.8.6z"/></svg>