<?xml version="1.0" standalone="no"?>
<!DOCTYPE svg PUBLIC "-//W3C//DTD SVG 20010904//EN"
 "http://www.w3.org/TR/2001/REC-SVG-20010904/DTD/svg10.dtd">
<svg version="1.0" xmlns="http://www.w3.org/2000/svg"
 width="700.000000pt" height="700.000000pt" viewBox="0 0 700.000000 700.000000"
 preserveAspectRatio="xMidYMid meet">
<metadata>
Created by potrace 1.11, written by Peter Selinger 2001-2013
</metadata>
<g transform="translate(0.000000,700.000000) scale(0.100000,-0.100000)"
fill="#000000" stroke="none">
<path d="M1474 5961 c-2 -2 -4 -424 -4 -937 l0 -933 -364 0 c-201 1 -368 -1
-373 -4 -6 -4 -10 -1068 -4 -1144 1 -10 82 -13 371 -13 l370 0 0 -941 0 -940
1068 4 c587 2 1081 7 1097 9 17 3 59 9 95 12 36 4 72 9 80 11 8 2 35 7 59 10
161 23 447 104 586 165 143 64 215 100 318 161 66 40 126 76 132 80 5 5 55 43
110 85 327 249 607 653 745 1074 30 92 70 248 76 295 3 22 7 46 10 54 7 20 23
140 31 229 14 151 6 585 -12 652 -2 8 -6 35 -9 60 -9 64 -14 93 -37 192 -11
48 -20 90 -20 93 0 2 -20 63 -44 135 -56 163 -201 465 -251 521 -8 8 -14 19
-14 23 0 12 -130 182 -195 256 -218 247 -542 472 -855 593 -128 50 -186 70
-220 78 -19 4 -69 17 -110 28 -72 20 -213 48 -275 56 -16 2 -46 7 -65 9 -34 6
-59 8 -205 22 -75 7 -2084 12 -2091 5z m1901 -1025 c61 -3 121 -8 135 -10 14
-3 52 -10 85 -15 210 -38 352 -94 539 -214 61 -38 186 -157 246 -232 98 -123
178 -283 224 -445 26 -93 35 -140 55 -280 10 -68 7 -423 -3 -500 -4 -25 -11
-65 -16 -90 -5 -25 -12 -59 -15 -76 -3 -18 -19 -74 -35 -125 -118 -361 -374
-629 -722 -758 -84 -31 -172 -57 -218 -64 -14 -3 -45 -8 -70 -12 -25 -4 -54
-9 -65 -11 -78 -15 -791 -28 -832 -16 -10 3 -13 97 -13 423 l0 419 385 0 385
0 0 48 c1 52 1 1078 0 1102 0 13 -49 15 -385 14 l-385 -2 0 423 c0 388 1 424
17 427 27 5 568 0 688 -6z"/>
</g>
</svg>
